<svg width="720" height="520" viewBox="0 0 720 520" fill="none" xmlns="http://www.w3.org/2000/svg">
  <rect width="720" height="520" rx="40" fill="url(#bg)"/>
  <path d="M360 104L507 159V262C507 344 447 417 360 438C273 417 213 344 213 262V159L360 104Z" fill="#0F2234" stroke="#6EE7D4" stroke-width="4"/>
  <path d="M360 164L449 198V258C449 309 411 356 360 373C309 356 271 309 271 258V198L360 164Z" fill="#091422" stroke="#8CC8FF" stroke-width="3"/>
  <path d="M314 263L345 294L411 226" stroke="#6EE7D4" stroke-width="12" stroke-linecap="round" stroke-linejoin="round"/>
  <circle cx="160" cy="130" r="7" fill="#6EE7D4" fill-opacity="0.55"/>
  <circle cx="577" cy="371" r="9" fill="#FFB366" fill-opacity="0.5"/>
  <circle cx="571" cy="138" r="6" fill="#8CC8FF" fill-opacity="0.6"/>
  <defs>
    <linearGradient id="bg" x1="57" y1="39" x2="657" y2="483" gradientUnits="userSpaceOnUse">
      <stop stop-color="#0D1C2C"/>
      <stop offset="1" stop-color="#07111F"/>
    </linearGradient>
  </defs>
</svg>
