<svg width="720" height="520" viewBox="0 0 720 520" fill="none" xmlns="http://www.w3.org/2000/svg">
  <rect width="720" height="520" rx="40" fill="url(#bg)"/>
  <rect x="84" y="116" width="552" height="80" rx="24" fill="#0F2234" stroke="#244A66"/>
  <rect x="110" y="144" width="156" height="12" rx="6" fill="#6EE7D4" fill-opacity="0.75"/>
  <rect x="110" y="168" width="248" height="10" rx="5" fill="#94AFC0" fill-opacity="0.58"/>
  <rect x="84" y="220" width="552" height="80" rx="24" fill="#0E1E2E" stroke="#244A66"/>
  <rect x="110" y="248" width="138" height="12" rx="6" fill="#8CC8FF" fill-opacity="0.75"/>
  <rect x="110" y="272" width="270" height="10" rx="5" fill="#94AFC0" fill-opacity="0.58"/>
  <rect x="84" y="324" width="552" height="80" rx="24" fill="#0C1927" stroke="#244A66"/>
  <rect x="110" y="352" width="172" height="12" rx="6" fill="#FFB366" fill-opacity="0.75"/>
  <rect x="110" y="376" width="238" height="10" rx="5" fill="#94AFC0" fill-opacity="0.58"/>
  <path d="M472 92L582 92" stroke="#6EE7D4" stroke-width="3" stroke-linecap="round"/>
  <path d="M504 430L604 430" stroke="#8CC8FF" stroke-width="3" stroke-linecap="round"/>
  <defs>
    <linearGradient id="bg" x1="53" y1="41" x2="669" y2="482" gradientUnits="userSpaceOnUse">
      <stop stop-color="#0D1C2C"/>
      <stop offset="1" stop-color="#07111F"/>
    </linearGradient>
  </defs>
</svg>
